HIERARCHY
ROOT Hip
{
	OFFSET	0.0000	0.0000	0.0000
	CHANNELS 6 Xposition Yposition Zposition Xrotation Yrotation Zrotation
	JOINT LowerSpine
	{
		OFFSET	0.0000	10.0859	-5.4579
		CHANNELS 3 Xrotation Yrotation Zrotation
		JOINT MiddleSpine
		{
			OFFSET	0.0000	9.2041	0.4808
			CHANNELS 3 Xrotation Yrotation Zrotation
			JOINT Chest
			{
				OFFSET	0.0000	11.3891	-2.5351
				CHANNELS 3 Xrotation Yrotation Zrotation
				JOINT Neck
				{
					OFFSET	0.0000	25.6648	-0.5337
					CHANNELS 3 Xrotation Yrotation Zrotation
					JOINT Head
					{
						OFFSET	0.0000	14.4932	3.9421
						CHANNELS 3 Xrotation Yrotation Zrotation
						End Site
						{
							OFFSET	0.0001	20.2508	0.6045
						}
					}
				}
				JOINT LClavicle
				{
					OFFSET	2.5911	24.7678	8.4856
					CHANNELS 3 Xrotation Yrotation Zrotation
					JOINT LShoulder
					{
						OFFSET	15.1374	3.5526	-5.7484
						CHANNELS 3 Xrotation Yrotation Zrotation
						JOINT LForearm
						{
							OFFSET	32.1549	-0.1142	-0.2786
							CHANNELS 3 Xrotation Yrotation Zrotation
							JOINT LHand
							{
								OFFSET	26.8240	0.0778	-0.1606
								CHANNELS 3 Xrotation Yrotation Zrotation
								JOINT LFinger1
								{
									OFFSET	10.3962	0.9092	2.8875
									CHANNELS 3 Xrotation Yrotation Zrotation
									JOINT LFinger11
									{
										OFFSET	3.8887	-0.9483	0.6852
										CHANNELS 3 Xrotation Yrotation Zrotation
										JOINT LFinger12
										{
											OFFSET	2.6547	-0.6476	0.4680
											CHANNELS 3 Xrotation Yrotation Zrotation
											End Site
											{
												OFFSET	1.8891	-0.5639	0.3064
											}
										}
									}
								}
								JOINT LFinger2
								{
									OFFSET	10.5514	1.0500	0.2514
									CHANNELS 3 Xrotation Yrotation Zrotation
									JOINT LFinger21
									{
										OFFSET	4.8082	0.0134	-0.0284
										CHANNELS 3 Xrotation Yrotation Zrotation
										JOINT LFinger22
										{
											OFFSET	2.6650	0.0081	-0.0162
											CHANNELS 3 Xrotation Yrotation Zrotation
											End Site
											{
												OFFSET	2.3938	-0.1690	0.0032
											}
										}
									}
								}
								JOINT LFinger3
								{
									OFFSET	9.9996	0.7006	-2.3657
									CHANNELS 3 Xrotation Yrotation Zrotation
									JOINT LFinger31
									{
										OFFSET	4.3629	-0.2209	-0.2731
										CHANNELS 3 Xrotation Yrotation Zrotation
										JOINT LFinger32
										{
											OFFSET	2.4861	-0.1251	-0.1562
											CHANNELS 3 Xrotation Yrotation Zrotation
											End Site
											{
												OFFSET	2.1982	-0.2703	-0.1039
											}
										}
									}
								}
								JOINT LFinger4
								{
									OFFSET	9.2792	-0.7052	-4.0856
									CHANNELS 3 Xrotation Yrotation Zrotation
									JOINT LFinger41
									{
										OFFSET	2.6836	-0.5596	-0.7408
										CHANNELS 3 Xrotation Yrotation Zrotation
										JOINT LFinger42
										{
											OFFSET	1.9679	-0.4099	-0.5436
											CHANNELS 3 Xrotation Yrotation Zrotation
											End Site
											{
												OFFSET	1.7467	-0.4799	-0.4007
											}
										}
									}
								}
								JOINT LFinger0
								{
									OFFSET	2.1505	-1.6278	1.6303
									CHANNELS 3 Xrotation Yrotation Zrotation
									JOINT LFinger01
									{
										OFFSET	4.0040	-1.3151	3.0189
										CHANNELS 3 Xrotation Yrotation Zrotation
										JOINT LFinger02
										{
											OFFSET	2.6366	-0.9434	1.8996
											CHANNELS 3 Xrotation Yrotation Zrotation
											End Site
											{
												OFFSET	1.9389	-0.6674	1.3277
											}
										}
									}
								}
							}
						}
					}
				}
				JOINT RClavicle
				{
					OFFSET	-2.5911	24.7678	8.4856
					CHANNELS 3 Xrotation Yrotation Zrotation
					JOINT RShoulder
					{
						OFFSET	-15.1401	3.5532	-5.7494
						CHANNELS 3 Xrotation Yrotation Zrotation
						JOINT RForearm
						{
							OFFSET	-32.1549	-0.1142	-0.2786
							CHANNELS 3 Xrotation Yrotation Zrotation
							JOINT RHand
							{
								OFFSET	-26.8240	0.0779	-0.1606
								CHANNELS 3 Xrotation Yrotation Zrotation
								JOINT RFinger1
								{
									OFFSET	-10.3962	0.9092	2.8875
									CHANNELS 3 Xrotation Yrotation Zrotation
									JOINT RFinger11
									{
										OFFSET	-3.8887	-0.9483	0.6852
										CHANNELS 3 Xrotation Yrotation Zrotation
										JOINT RFinger12
										{
											OFFSET	-2.6547	-0.6476	0.4680
											CHANNELS 3 Xrotation Yrotation Zrotation
											End Site
											{
												OFFSET	-1.8891	-0.5639	0.3064
											}
										}
									}
								}
								JOINT RFinger2
								{
									OFFSET	-10.5514	1.0500	0.2514
									CHANNELS 3 Xrotation Yrotation Zrotation
									JOINT RFinger21
									{
										OFFSET	-4.8082	0.0134	-0.0284
										CHANNELS 3 Xrotation Yrotation Zrotation
										JOINT RFinger22
										{
											OFFSET	-2.6650	0.0081	-0.0162
											CHANNELS 3 Xrotation Yrotation Zrotation
											End Site
											{
												OFFSET	-2.3938	-0.1690	0.0032
											}
										}
									}
								}
								JOINT RFinger3
								{
									OFFSET	-9.9996	0.7006	-2.3657
									CHANNELS 3 Xrotation Yrotation Zrotation
									JOINT RFinger31
									{
										OFFSET	-4.3629	-0.2209	-0.2731
										CHANNELS 3 Xrotation Yrotation Zrotation
										JOINT RFinger32
										{
											OFFSET	-2.4861	-0.1251	-0.1562
											CHANNELS 3 Xrotation Yrotation Zrotation
											End Site
											{
												OFFSET	-2.1982	-0.2703	-0.1039
											}
										}
									}
								}
								JOINT RFinger4
								{
									OFFSET	-9.2792	-0.7052	-4.0856
									CHANNELS 3 Xrotation Yrotation Zrotation
									JOINT RFinger41
									{
										OFFSET	-2.6836	-0.5596	-0.7408
										CHANNELS 3 Xrotation Yrotation Zrotation
										JOINT RFinger42
										{
											OFFSET	-1.9679	-0.4099	-0.5436
											CHANNELS 3 Xrotation Yrotation Zrotation
											End Site
											{
												OFFSET	-1.7467	-0.4799	-0.4007
											}
										}
									}
								}
								JOINT RFinger0
								{
									OFFSET	-2.1505	-1.6278	1.6303
									CHANNELS 3 Xrotation Yrotation Zrotation
									JOINT RFinger01
									{
										OFFSET	-4.0040	-1.3151	3.0189
										CHANNELS 3 Xrotation Yrotation Zrotation
										JOINT RFinger02
										{
											OFFSET	-2.6366	-0.9434	1.8996
											CHANNELS 3 Xrotation Yrotation Zrotation
											End Site
											{
												OFFSET	-1.9389	-0.6674	1.3277
											}
										}
									}
								}
							}
						}
					}
				}
			}
		}
	}
	JOINT RThigh
	{
		OFFSET	-10.7894	4.5591	-0.8894
		CHANNELS 3 Xrotation Yrotation Zrotation
		JOINT RShin
		{
			OFFSET	-0.8633	-46.9290	0.0000
			CHANNELS 3 Xrotation Yrotation Zrotation
			JOINT RFoot
			{
				OFFSET	0.0000	-46.0814	0.0000
				CHANNELS 3 Xrotation Yrotation Zrotation
				JOINT RToe
				{
					OFFSET	0.0000	-5.0648	10.5911
					CHANNELS 3 Xrotation Yrotation Zrotation
					End Site
					{
						OFFSET	0.0000	0.0000	7.1051
					}
				}
			}
		}
	}
	JOINT LThigh
	{
		OFFSET	10.7893	4.5594	-0.8894
		CHANNELS 3 Xrotation Yrotation Zrotation
		JOINT LShin
		{
			OFFSET	0.8634	-46.9293	0.0000
			CHANNELS 3 Xrotation Yrotation Zrotation
			JOINT LFoot
			{
				OFFSET	0.0000	-46.0814	0.0000
				CHANNELS 3 Xrotation Yrotation Zrotation
				JOINT LToe
				{
					OFFSET	0.0000	-5.0648	10.5911
					CHANNELS 3 Xrotation Yrotation Zrotation
					End Site
					{
						OFFSET	0.0000	0.0000	7.1051
					}
				}
			}
		}
	}
}
MOTION
Frames:	5
Frame Time: 0.0333333000
	-0.1136	97.0195	4.6924	-9.999522	-27.899770	-7.050002	0.000000	0.000000	0.000000	3.425245	-0.515415	-0.161739	11.412610	-1.739310	-0.442216	0.000000	0.000000	0.000000	0.000000	0.000000	0.000000	0.000000	0.000000	-10.903810	21.753110	-26.137270	-36.112660	12.414840	-39.141370	-0.160628	0.000000	0.000000	0.000000	0.000000	0.000000	0.000000	0.000000	0.000000	0.000000	0.000000	0.000000	0.000000	0.000000	0.000000	0.000000	0.000000	0.000000	0.000000	0.000000	0.000000	0.000000	0.000000	0.000000	0.000000	0.000000	0.000000	0.000000	0.000000	0.000000	0.000000	0.000000	0.000000	0.000000	0.000000	0.000000	0.000000	0.000000	0.000000	0.000000	0.000000	0.000000	0.000000	0.000000	0.000000	0.000000	0.000000	0.000000	0.000000	0.000000	0.000000	9.910344	25.356360	24.114990	34.049160	15.617310	46.293480	0.231218	0.000000	0.000000	0.000000	0.000000	0.000000	0.000000	0.000000	0.000000	0.000000	0.000000	0.000000	0.000000	0.000000	0.000000	0.000000	0.000000	0.000000	0.000000	0.000000	0.000000	0.000000	0.000000	0.000000	0.000000	0.000000	0.000000	0.000000	0.000000	0.000000	0.000000	0.000000	0.000000	0.000000	0.000000	0.000000	0.000000	0.000000	0.000000	0.000000	0.000000	0.000000	0.000000	0.000000	0.000000	0.000000	0.000000	0.000000	0.000000	2.566377	-0.259235	-0.169863	12.821150	-0.465164	-0.641284	0.318727	2.785992	1.323024	0.000001	0.000000	0.000000	7.473475	0.563702	2.767689	23.885110	0.278545	-1.278921	-1.393953	3.406375	1.680481	-7.905372	0.000000	0.000000
	-0.1495	97.0341	4.7215	-10.013060	-27.506370	-7.092729	0.000000	0.000000	0.000000	3.427792	-0.519158	-0.145808	11.430720	-1.756805	-0.334564	0.000000	0.000000	0.000000	0.000000	0.000000	0.000000	0.000000	0.000000	-10.915880	21.718340	-26.079570	-36.219480	12.354360	-39.142320	-0.157519	0.000000	0.000000	0.000000	0.000000	0.000000	0.000000	0.000000	0.000000	0.000000	0.000000	0.000000	0.000000	0.000000	0.000000	0.000000	0.000000	0.000000	0.000000	0.000000	0.000000	0.000000	0.000000	0.000000	0.000000	0.000000	0.000000	0.000000	0.000000	0.000000	0.000000	0.000000	0.000000	0.000000	0.000000	0.000000	0.000000	0.000000	0.000000	0.000000	0.000000	0.000000	0.000000	0.000000	0.000000	0.000000	0.000000	0.000000	0.000000	0.000000	0.000000	9.906680	25.806430	24.961020	33.458970	16.277910	45.596330	0.229865	0.000000	0.000000	0.000000	0.000000	0.000000	0.000000	0.000000	0.000000	0.000000	0.000000	0.000000	0.000000	0.000000	0.000000	0.000000	0.000000	0.000000	0.000000	0.000000	0.000000	0.000000	0.000000	0.000000	0.000000	0.000000	0.000000	0.000000	0.000000	0.000000	0.000000	0.000000	0.000000	0.000000	0.000000	0.000000	0.000000	0.000000	0.000000	0.000000	0.000000	0.000000	0.000000	0.000000	0.000000	0.000000	0.000000	0.000000	0.000000	2.600435	-0.266275	-0.037800	13.012920	-0.488315	-0.754697	0.413984	3.043494	1.442219	0.000001	0.000000	0.000000	7.541751	0.579744	2.964808	23.782980	0.250817	-1.417670	-1.360473	3.714487	1.831375	-8.020630	0.000000	0.000000
	-0.2001	97.0481	4.7593	-10.035550	-26.978560	-7.127324	0.000000	0.000000	0.000000	3.437814	-0.523478	-0.094215	11.454140	-1.758356	-0.219799	0.000000	0.000000	0.000000	0.000000	0.000000	0.000000	0.000000	0.000000	-10.919920	21.437590	-25.546670	-36.646490	11.914370	-39.547130	-0.146766	0.000000	0.000000	0.000000	0.000000	0.000000	0.000000	0.000000	0.000000	0.000000	0.000000	0.000000	0.000000	0.000000	0.000000	0.000000	0.000000	0.000000	0.000000	0.000000	0.000000	0.000000	0.000000	0.000000	0.000000	0.000000	0.000000	0.000000	0.000000	0.000000	0.000000	0.000000	0.000000	0.000000	0.000000	0.000000	0.000000	0.000000	0.000000	0.000000	0.000000	0.000000	0.000000	0.000000	0.000000	0.000000	0.000000	0.000000	0.000000	0.000000	0.000000	9.892249	26.394900	25.886550	32.765940	17.076320	44.841090	0.231695	0.000000	0.000000	0.000000	0.000000	0.000000	0.000000	0.000000	0.000000	0.000000	0.000000	0.000000	0.000000	0.000000	0.000000	0.000000	0.000000	0.000000	0.000000	0.000000	0.000000	0.000000	0.000000	0.000000	0.000000	0.000000	0.000000	0.000000	0.000000	0.000000	0.000000	0.000000	0.000000	0.000000	0.000000	0.000000	0.000000	0.000000	0.000000	0.000000	0.000000	0.000000	0.000000	0.000000	0.000000	0.000000	0.000000	0.000000	0.000000	2.705524	-0.274915	0.091877	13.158300	-0.506348	-0.838240	0.485937	3.267700	1.545964	0.000001	0.000000	0.000000	7.588398	0.595312	3.162804	23.741380	0.238094	-1.482591	-1.373116	3.945640	1.945877	-8.064696	0.000000	0.000000
	-0.2525	97.0592	4.7940	-10.055550	-26.371840	-7.143179	0.000000	0.000000	0.000000	3.441871	-0.522566	-0.075984	11.482510	-1.743830	-0.098878	0.000000	0.000000	0.000000	0.000000	0.000000	0.000000	0.000000	0.000000	-10.934600	20.792120	-24.409840	-37.533160	10.909560	-40.423710	-0.138331	0.000000	0.000000	0.000000	0.000000	0.000000	0.000000	0.000000	0.000000	0.000000	0.000000	0.000000	0.000000	0.000000	0.000000	0.000000	0.000000	0.000000	0.000000	0.000000	0.000000	0.000000	0.000000	0.000000	0.000000	0.000000	0.000000	0.000000	0.000000	0.000000	0.000000	0.000000	0.000000	0.000000	0.000000	0.000000	0.000000	0.000000	0.000000	0.000000	0.000000	0.000000	0.000000	0.000000	0.000000	0.000000	0.000000	0.000000	0.000000	0.000000	0.000000	9.885060	27.086600	26.744200	31.980940	17.947310	44.279440	0.237891	0.000000	0.000000	0.000000	0.000000	0.000000	0.000000	0.000000	0.000000	0.000000	0.000000	0.000000	0.000000	0.000000	0.000000	0.000000	0.000000	0.000000	0.000000	0.000000	0.000000	0.000000	0.000000	0.000000	0.000000	0.000000	0.000000	0.000000	0.000000	0.000000	0.000000	0.000000	0.000000	0.000000	0.000000	0.000000	0.000000	0.000000	0.000000	0.000000	0.000000	0.000000	0.000000	0.000000	0.000000	0.000000	0.000000	0.000000	0.000000	2.877198	-0.285344	0.205831	13.227390	-0.529638	-0.883165	0.520181	3.474860	1.642730	0.000001	0.000000	0.000000	7.605281	0.609692	3.360968	23.734090	0.228914	-1.528369	-1.411464	4.152910	2.049863	-8.038489	0.000000	0.000000
	-0.2977	97.0660	4.8203	-10.066510	-25.729340	-7.125460	0.000000	0.000000	0.000000	3.456872	-0.511779	-0.015715	11.515380	-1.713257	0.027258	0.000000	0.000000	0.000000	0.000000	0.000000	0.000000	0.000000	0.000000	-10.949350	20.107250	-23.203140	-38.497190	9.800135	-41.272510	-0.141328	0.000000	0.000000	0.000000	0.000000	0.000000	0.000000	0.000000	0.000000	0.000000	0.000000	0.000000	0.000000	0.000000	0.000000	0.000000	0.000000	0.000000	0.000000	0.000000	0.000000	0.000000	0.000000	0.000000	0.000000	0.000000	0.000000	0.000000	0.000000	0.000000	0.000000	0.000000	0.000000	0.000000	0.000000	0.000000	0.000000	0.000000	0.000000	0.000000	0.000000	0.000000	0.000000	0.000000	0.000000	0.000000	0.000000	0.000000	0.000000	0.000000	0.000000	9.877421	27.855000	27.689850	30.842030	18.916860	44.037910	0.250661	0.000000	0.000000	0.000000	0.000000	0.000000	0.000000	0.000000	0.000000	0.000000	0.000000	0.000000	0.000000	0.000000	0.000000	0.000000	0.000000	0.000000	0.000000	0.000000	0.000000	0.000000	0.000000	0.000000	0.000000	0.000000	0.000000	0.000000	0.000000	0.000000	0.000000	0.000000	0.000000	0.000000	0.000000	0.000000	0.000000	0.000000	0.000000	0.000000	0.000000	0.000000	0.000000	0.000000	0.000000	0.000000	0.000000	0.000000	0.000000	3.015658	-0.295650	0.300289	13.327720	-0.546650	-0.950892	0.496311	3.722768	1.760954	0.000001	0.000000	0.000000	7.599026	0.620950	3.538709	23.721630	0.219786	-1.572740	-1.447678	4.381141	2.164305	-8.013514	0.000000	0.000000
